<?xml version="1.0" standalone="no"?>
<!DOCTYPE svg PUBLIC "-//W3C//DTD SVG 20010904//EN"
 "http://www.w3.org/TR/2001/REC-SVG-20010904/DTD/svg10.dtd">
<svg version="1.0" xmlns="http://www.w3.org/2000/svg"
 width="769.000000pt" height="1175.000000pt" viewBox="0 0 769.000000 1175.000000"
 preserveAspectRatio="xMidYMid meet">
<metadata>
Created by potrace 1.15, written by Peter Selinger 2001-2017
</metadata>
<g transform="translate(0.000000,1175.000000) scale(0.100000,-0.100000)"
fill="#000000" stroke="none">
<path d="M3610 11570 c-36 -5 -119 -25 -185 -43 l-120 -34 220 1 c215 1 222 0
293 -26 239 -87 427 -302 531 -605 43 -124 66 -235 91 -433 28 -219 63 -388
104 -503 49 -138 91 -194 280 -377 137 -133 134 -119 -19 95 -105 147 -118
171 -145 258 -30 98 -48 216 -70 445 -36 377 -57 479 -139 662 -62 139 -127
237 -220 331 -85 85 -136 121 -232 166 -130 60 -257 81 -389 63z"/>
<path d="M3025 11430 c-264 -32 -490 -198 -618 -455 -71 -142 -106 -296 -143
-629 -26 -234 -42 -325 -90 -496 -23 -80 -27 -116 -28 -230 0 -74 3 -151 7
-170 17 -84 113 -232 171 -262 l21 -11 -21 24 c-64 73 -97 176 -97 299 0 109
24 217 78 356 59 150 91 314 130 664 15 138 61 327 99 414 107 242 268 387
536 482 67 23 58 26 -45 14z"/>
<path d="M3385 11415 l-50 -13 50 4 c66 7 201 -18 267 -49 68 -31 166 -105
219 -165 176 -199 328 -596 379 -992 24 -191 32 -239 57 -330 38 -143 128
-312 229 -430 53 -61 183 -184 274 -259 152 -126 216 -181 254 -220 l39 -40
-89 45 c-136 68 -272 117 -469 168 -383 100 -424 116 -506 192 -102 96 -119
214 -64 439 23 93 29 143 30 225 0 101 -2 108 -36 180 -20 41 -60 104 -88 138
-95 118 -101 137 -111 377 -8 184 -17 251 -41 311 -13 31 -16 39 -18 53 -2 19
-57 75 -100 103 -39 24 -55 28 -115 28 -39 -1 -105 -10 -146 -20 l-75 -19 116
6 c102 5 121 3 161 -15 58 -25 97 -76 126 -162 3 -8 4 -126 4 -261 -2 -293 5
-330 89 -444 81 -109 104 -166 104 -255 0 -41 -9 -113 -20 -160 -17 -76 -24
-90 -65 -130 -55 -56 -222 -168 -312 -210 -167 -78 -329 -58 -475 58 -170 136
-243 360 -261 812 -4 91 -7 246 -7 345 0 170 1 183 24 229 30 61 86 98 184
121 116 28 113 36 -13 32 -128 -3 -155 -12 -215 -73 -88 -87 -116 -209 -115
-494 1 -217 1 -218 -100 -394 -94 -162 -111 -211 -118 -322 -5 -107 12 -206
64 -357 41 -120 84 -269 84 -291 0 -12 -10 -16 -39 -16 -21 0 -79 -11 -127
-25 -349 -100 -572 -290 -821 -700 -42 -70 -168 -345 -216 -475 -34 -90 -110
-345 -140 -465 -68 -273 -90 -354 -136 -501 -85 -273 -100 -354 -82 -464 17
-107 61 -182 170 -291 254 -253 594 -389 981 -393 377 -3 646 74 940 269 58
39 136 101 175 139 60 59 63 63 20 29 -121 -94 -361 -222 -485 -259 -198 -59
-328 -78 -525 -78 -213 0 -394 31 -556 95 -231 90 -472 277 -545 421 -53 104
-45 190 41 458 29 91 88 304 130 473 114 464 203 722 329 962 75 143 92 169
175 283 127 174 268 298 427 374 141 67 207 88 294 93 242 15 279 25 353 99
29 28 61 67 71 86 16 29 11 25 -33 -22 -28 -31 -75 -68 -103 -82 -46 -23 -64
-26 -160 -26 l-108 0 0 73 c0 39 -11 149 -25 242 -14 94 -25 207 -25 253 0 64
-3 81 -12 76 -7 -4 -6 1 3 12 8 10 21 39 28 64 11 41 143 274 161 285 4 2 10
-39 14 -93 14 -188 53 -322 128 -438 112 -174 324 -276 509 -245 75 12 169 47
169 62 0 5 3 8 8 8 4 -1 12 -1 19 0 11 1 161 111 240 176 l32 26 -5 -78 c-11
-140 35 -273 123 -358 101 -97 202 -140 522 -220 312 -77 537 -163 620 -236
21 -18 40 -31 42 -29 8 8 211 -210 257 -277 29 -41 97 -333 78 -333 -3 0 -18
20 -33 44 -54 85 -269 316 -295 316 -6 0 -51 25 -99 56 -49 30 -105 60 -126
65 -21 6 -52 17 -69 24 -17 8 -75 22 -130 31 -125 20 -251 13 -371 -22 -113
-33 -184 -71 -280 -151 -134 -112 -132 -112 -243 -38 -102 67 -279 152 -371
177 -74 20 -107 23 -269 22 -169 0 -194 -2 -285 -27 -142 -38 -252 -95 -335
-173 -99 -94 -202 -251 -239 -366 -7 -21 -16 -38 -20 -38 -4 0 -14 46 -22 103
l-13 102 -8 -85 c-4 -47 -5 -184 -2 -305 8 -289 0 -322 -162 -666 -60 -129
-88 -215 -115 -355 -17 -90 -20 -93 -69 -59 -47 33 -128 109 -148 140 -7 11 1
-7 18 -41 58 -113 198 -223 434 -340 206 -102 301 -137 349 -131 52 7 83 38
172 172 82 124 187 238 257 278 63 36 148 57 235 57 40 0 73 4 73 9 0 13 -139
25 -211 18 -151 -13 -299 -132 -447 -355 -62 -94 -83 -108 -139 -88 -181 65
-533 229 -533 248 0 5 6 19 14 31 8 12 26 57 40 100 14 43 45 116 70 162 25
45 42 86 39 89 -4 3 -2 6 3 6 6 0 35 46 64 102 l55 102 5 -345 5 -344 17 60
c17 57 38 187 38 230 0 11 2 88 6 170 3 83 1 202 -4 265 -7 93 -6 130 6 193
14 70 14 93 1 200 -19 170 -17 191 26 283 80 169 243 338 387 402 169 74 449
93 640 43 88 -23 245 -99 356 -172 121 -79 201 -94 289 -52 18 8 70 48 115 89
124 110 248 163 423 179 68 6 238 -12 330 -37 44 -11 229 -114 286 -159 83
-65 173 -217 211 -357 19 -66 22 -105 22 -282 1 -182 -2 -214 -21 -287 -47
-170 -121 -296 -332 -562 -64 -82 -126 -171 -142 -207 -32 -69 -49 -159 -48
-249 l0 -60 34 102 c18 55 41 116 51 134 9 19 92 110 183 204 150 153 256 279
290 343 7 13 16 22 21 20 20 -7 145 -190 191 -279 27 -52 63 -108 80 -125 l31
-29 -14 30 c-9 17 -28 68 -43 115 -40 123 -64 165 -147 259 l-75 84 29 75 c16
41 36 111 44 156 17 98 17 311 0 424 -6 45 -10 82 -8 82 2 0 26 -19 54 -42
186 -156 192 -170 138 -357 -17 -57 -30 -119 -30 -138 0 -35 24 -98 42 -109 5
-4 2 9 -7 27 -23 44 -15 102 31 214 71 175 54 261 -72 371 -106 93 -115 116
-124 302 -4 86 -11 166 -15 176 -37 87 166 -176 298 -387 110 -174 206 -354
291 -544 24 -54 91 -195 149 -313 183 -373 236 -518 238 -642 1 -77 -6 -107
-42 -180 -105 -211 -292 -400 -543 -553 -92 -55 -214 -113 -256 -120 -8 -2
-42 -8 -75 -15 -69 -14 -140 -10 -275 15 -150 27 -251 18 -376 -33 -114 -46
-234 -72 -334 -72 -72 0 -117 12 -165 42 -29 19 -29 19 3 -10 88 -78 319 -83
547 -13 94 29 176 27 325 -10 289 -71 500 -20 820 199 180 123 290 230 385
377 108 165 139 256 132 384 -11 203 -56 312 -399 976 -157 303 -185 351 -358
604 -36 52 -174 223 -234 288 -28 31 -100 100 -161 153 -96 85 -113 105 -132
155 -39 101 -123 241 -197 326 -39 45 -159 164 -266 264 -366 340 -448 482
-504 870 -112 775 -473 1290 -901 1284 -38 0 -92 -7 -120 -14z"/>
<path d="M5819 6711 c-116 -103 -219 -255 -319 -471 -59 -126 -88 -170 -113
-170 -11 0 -72 27 -136 59 -146 74 -203 96 -305 117 -90 18 -182 14 -256 -11
-60 -21 -157 -95 -260 -201 l-85 -86 120 87 c65 49 149 102 185 119 59 28 74
31 160 31 127 -1 210 -29 438 -149 122 -64 197 -60 246 15 14 21 26 41 26 45
0 3 34 85 76 182 88 205 144 306 226 409 32 40 57 73 55 73 -2 0 -28 -22 -58
-49z"/>
<path d="M1619 5753 c-162 -250 -308 -533 -368 -711 -17 -51 -38 -106 -46
-122 -8 -16 -15 -37 -15 -47 0 -10 -6 -30 -14 -45 -8 -14 -17 -46 -21 -70 -4
-24 -16 -69 -26 -100 -52 -156 -82 -423 -76 -663 10 -338 70 -586 294 -1210
38 -107 102 -306 135 -420 43 -153 164 -884 214 -1295 26 -223 59 -375 98
-463 14 -32 27 -57 29 -57 3 0 -2 21 -10 48 -36 118 -44 184 -53 452 -5 151
-15 336 -24 410 -8 74 -17 162 -20 195 -40 422 -60 567 -103 745 -32 132 -100
358 -158 520 -125 355 -195 599 -242 850 -27 147 -25 568 4 745 39 232 70 372
99 445 8 19 21 62 30 95 8 33 22 74 30 90 8 17 35 80 59 140 78 195 101 247
188 423 47 94 84 172 83 172 -2 0 -41 -57 -87 -127z"/>
<path d="M5081 5398 c-1 -4 6 -35 14 -70 53 -231 110 -866 89 -992 -6 -38 -7
-39 -23 -20 -28 35 -94 80 -156 109 -33 15 -82 37 -110 50 -114 54 -368 105
-540 110 -228 6 -448 -17 -809 -86 -210 -40 -289 -66 -377 -125 -43 -28 -74
-43 -77 -36 -8 24 -127 209 -165 257 -246 307 -626 548 -1010 640 -127 30
-170 36 -327 40 l-125 4 95 -14 c52 -8 111 -16 130 -19 19 -3 76 -16 125 -30
344 -94 641 -270 898 -530 117 -118 206 -244 279 -394 l60 -123 -36 -87 c-19
-48 -65 -188 -102 -312 -82 -278 -144 -473 -286 -890 -117 -347 -187 -600
-212 -771 -66 -445 -26 -1023 105 -1499 21 -76 110 -323 114 -318 2 2 -8 57
-21 123 -62 316 -84 535 -91 900 -9 501 28 822 138 1185 17 58 32 112 33 120
1 9 5 20 8 25 3 6 35 109 71 230 82 273 168 623 202 820 60 344 89 465 111
465 8 0 42 30 77 66 34 36 84 77 110 90 144 74 748 181 1073 191 202 6 279 -1
471 -48 152 -36 240 -77 337 -155 31 -26 33 -60 15 -259 -46 -543 -182 -882
-577 -1439 -112 -158 -186 -259 -242 -327 -25 -30 -124 -152 -220 -270 -96
-118 -190 -234 -207 -259 -85 -117 -191 -295 -236 -394 -74 -166 -90 -235 -91
-401 -1 -163 2 -173 102 -395 36 -80 74 -172 84 -205 l18 -60 -5 55 c-3 30
-29 123 -56 205 -65 193 -82 278 -74 375 14 159 55 282 154 458 65 115 235
332 456 582 93 104 110 125 181 210 61 74 137 174 285 375 225 307 398 650
473 941 45 172 76 461 76 699 0 143 -17 396 -30 445 -5 19 -12 62 -15 95 -13
133 -97 498 -138 605 -14 36 -26 62 -26 58z"/>
</g>
</svg>
